PathFileType	4	(X/Y/Z)	 s08c0101.trc
DataRate	CameraRate	NumFrames	NumMarkers	Units	OrigDataRate	OrigDataStartFrame	OrigNumFrames
200	200	4	50	mm	200	1251	2000
Frame#	Time	racr			lacr			c7			jug			rlel			rdr			llel			ldr			s2			lic			ric			lasi			rasi			rpsi			lpsi			rgt			lgt			rth1			rth2			rth3			rth4			rlfc			rmfc			rsh1			rsh2			rsh3			rsh4			rlmal			rmmal			rcal			rtoe			rmt5			lth1			lth2			lth4			lth3			llfc			lmfc			llmal			lmmal			lcal			lmt5			lsh1			lsh2			lsh3			lsh4			ltoe			SBIKE			LBIKE			RBIKE			
		X1	Y1	Z1	X2	Y2	Z2	X3	Y3	Z3	X4	Y4	Z4	X5	Y5	Z5	X6	Y6	Z6	X7	Y7	Z7	X8	Y8	Z8	X9	Y9	Z9	X10	Y10	Z10	X11	Y11	Z11	X12	Y12	Z12	X13	Y13	Z13	X14	Y14	Z14	X15	Y15	Z15	X16	Y16	Z16	X17	Y17	Z17	X18	Y18	Z18	X19	Y19	Z19	X20	Y20	Z20	X21	Y21	Z21	X22	Y22	Z22	X23	Y23	Z23	X24	Y24	Z24	X25	Y25	Z25	X26	Y26	Z26	X27	Y27	Z27	X28	Y28	Z28	X29	Y29	Z29	X30	Y30	Z30	X31	Y31	Z31	X32	Y32	Z32	X33	Y33	Z33	X34	Y34	Z34	X35	Y35	Z35	X36	Y36	Z36	X37	Y37	Z37	X38	Y38	Z38	X39	Y39	Z39	X40	Y40	Z40	X41	Y41	Z41	X42	Y42	Z42	X43	Y43	Z43	X44	Y44	Z44	X45	Y45	Z45	X46	Y46	Z46	X47	Y47	Z47	X48	Y48	Z48	X49	Y49	Z49	X50	Y50	Z50	
1251	6.2550	578.896833	1350.185121	-71.689907	584.213723	1348.198574	-395.802258	554.768946	1420.139419	-237.608867	506.504083	1267.337896	-233.416309	595.890730	1108.135864	48.718507	788.712798	889.502705	-35.258136	583.624741	1079.628539	-497.512615	798.861829	907.455690	-410.613129	-5.173969	1214.714308	-229.386162	148.534064	1212.077717	-388.468483	154.911514	1219.113972	-68.771040	177.257812	1171.724416	-346.701096	179.566104	1169.180892	-107.546419	26.870737	1256.033195	-177.759267	25.779090	1257.464098	-274.158941	93.455326	1107.992095	-35.059323	100.311847	1094.037707	-414.372550	223.546740	999.305488	-33.035113	303.717370	961.334129	-37.714417	352.491448	889.550005	-44.082748	325.952368	988.111593	-49.863827	425.666119	804.194703	-60.973958	407.911881	796.334797	-173.871334	320.466882	727.148280	-32.036546	277.960671	649.805061	-53.312112	205.519925	604.456757	-57.546472	302.449177	633.036376	-80.055957	116.554658	528.725517	-63.601101	144.943783	530.655347	-149.876060	43.346691	557.079824	-111.735466	246.115936	344.813769	-106.670703	161.659403	383.000141	-35.816092	186.801866	985.237946	-424.636306	256.882469	933.571379	-421.037059	284.672601	955.679665	-411.876794	292.244619	851.869833	-419.312002	359.623681	740.924027	-398.657119	363.182790	712.995161	-297.639471	323.722933	322.375421	-403.419345	342.799504	339.419834	-310.710959	258.137121	300.388414	-367.905378	466.802926	236.500501	-413.771023	346.964355	611.244208	-423.516802	362.753866	528.269782	-409.310711	336.472225	443.657511	-409.207362	383.994792	529.614833	-374.318036	545.433977	267.376562	-341.671377	-133.989276	947.771903	-225.219154	26.858864	83.819679	-427.660856	18.903859	80.766106	-30.425713	
1252	6.2600	577.455290	1350.457384	-68.795910	585.920907	1348.855435	-393.343054	554.903130	1420.401597	-235.044959	506.798799	1267.536307	-231.324034	595.583854	1108.040048	50.520764	788.803406	889.809249	-35.054732	586.932858	1081.162844	-497.817723	799.872375	907.097057	-410.726332	-4.130585	1214.153315	-232.993094	150.942284	1210.925408	-390.064610	153.172422	1219.607513	-70.582451	179.485019	1169.241175	-347.295453	179.117481	1170.153131	-109.286526	26.779180	1256.409115	-182.377257	26.783176	1256.632848	-277.475115	93.189110	1109.917442	-36.792893	101.520890	1091.891163	-415.857654	224.807072	1003.425281	-34.246150	305.586021	967.104597	-38.331828	355.869172	896.138350	-43.891401	327.444865	993.980978	-50.780053	430.712102	812.029517	-61.125929	413.012524	802.752762	-171.852761	325.342133	735.494737	-32.297916	282.431086	658.338602	-53.351872	209.707794	613.569126	-57.711048	306.842521	641.521217	-79.999324	120.631516	538.164091	-63.924868	149.812658	540.277525	-150.290725	46.990820	566.079006	-111.957052	251.505484	355.463461	-106.814512	166.864565	393.124653	-35.940717	185.962193	981.107879	-426.098339	254.641612	927.522802	-422.197695	282.969362	948.859502	-412.961877	287.669362	844.940150	-420.563926	351.941615	732.389774	-399.088153	354.119596	704.874388	-298.712712	319.500451	314.200144	-404.245385	343.067218	334.753576	-316.783697	254.293277	293.423878	-368.811290	462.229394	226.517040	-413.758705	340.132642	602.756759	-424.754944	356.722205	519.981446	-410.375979	331.344837	435.118267	-410.350650	377.772805	521.938232	-375.740883	541.052438	256.312437	-341.490104	-133.971387	947.776586	-225.494586	26.853349	83.942542	-427.785229	18.898079	80.789307	-30.457171	
1253	6.2650	576.014054	1350.835549	-66.023207	587.681870	1349.708507	-390.710852	554.998643	1420.698194	-232.548710	507.274669	1267.702200	-229.291970	595.367193	1108.004981	51.925917	788.875117	890.111012	-34.938185	590.239482	1082.966991	-497.901027	800.813575	906.738581	-410.889981	-3.116841	1213.593530	-236.397417	153.553555	1210.133576	-391.781068	151.329583	1220.381210	-72.366790	181.954780	1166.568173	-348.851391	178.541014	1171.363608	-110.924736	26.318847	1256.348169	-185.751713	28.321293	1256.240827	-281.046972	92.826943	1112.333453	-38.529866	102.628989	1089.906985	-417.317044	225.426704	1007.941700	-35.347464	307.397793	973.060723	-38.523014	358.874647	902.994582	-43.875933	328.497931	1000.131946	-51.815248	435.550238	820.118503	-60.816367	418.733728	809.851545	-169.961963	330.136075	744.070141	-32.506171	286.725595	666.952431	-53.425426	214.018965	622.547246	-57.800693	311.676151	649.938047	-79.649097	124.929530	547.178118	-64.182675	153.431866	549.408630	-150.390203	50.812974	574.467138	-112.157404	257.548947	366.127514	-106.968638	172.608094	402.807173	-36.004845	184.824800	977.414096	-427.516504	251.967173	922.004919	-423.538765	280.806637	942.481711	-413.983020	282.800901	838.457340	-421.888073	344.068445	724.457730	-400.202858	344.451876	697.470824	-299.719115	314.714321	306.352984	-404.914066	343.013598	330.617843	-322.998562	250.010682	286.961466	-369.422071	457.004763	216.944942	-413.777824	332.481036	594.704900	-426.008882	350.098201	512.127387	-411.471654	325.604547	427.053449	-411.395468	371.074352	514.591669	-377.127801	536.132044	245.666117	-341.379614	-133.996020	947.799304	-225.666811	26.873136	83.814367	-427.693244	18.922570	80.798255	-30.474213	
1254	6.2700	574.833431	1351.619945	-62.672011	589.245495	1350.790411	-387.699581	555.076994	1421.070248	-229.944609	508.020417	1267.866073	-226.718611	595.283931	1108.005450	53.185524	788.940738	890.490025	-34.856889	593.476620	1085.043084	-497.853051	801.673883	906.404137	-411.116900	-2.509633	1213.174369	-239.556068	155.812950	1209.803903	-392.456191	149.291991	1221.407406	-74.132165	184.220905	1163.735245	-351.207475	177.884046	1172.901023	-112.559042	26.041929	1256.537983	-189.182953	29.361841	1255.918757	-284.726590	91.994864	1115.239350	-40.230243	103.586848	1088.211477	-418.696255	226.118326	1012.535433	-36.308517	308.778907	979.432625	-38.969556	361.577843	910.218580	-43.737627	329.420142	1006.781259	-52.557842	440.045628	828.362775	-60.340373	423.917012	817.967945	-168.850541	334.823018	752.765958	-32.478319	291.471103	675.413332	-53.087008	218.211987	631.741294	-57.623486	317.003041	658.167861	-79.337365	129.409331	555.813912	-64.403765	157.858517	558.393559	-150.449806	54.772600	582.264564	-112.241922	264.163138	376.662496	-106.983949	178.745406	412.276139	-36.011756	183.271776	974.137229	-429.157550	248.964500	916.859568	-424.866709	278.302849	936.574120	-415.080879	277.465724	832.563692	-423.422310	335.617244	717.031087	-401.389737	334.681669	690.466429	-301.040399	309.476318	299.120958	-405.501345	342.136520	326.632041	-328.716153	245.254055	281.046167	-369.717824	451.163337	207.707780	-413.843004	324.301068	587.222457	-427.265738	342.875473	504.882632	-412.763308	319.287494	419.400278	-412.512471	363.692652	507.526737	-378.187986	530.630518	235.400913	-341.453749	-134.046705	947.905761	-225.848433	26.857013	83.954293	-427.826843	18.947030	80.817589	-30.512519	
